<?xml version="1.0" encoding="UTF-8"?>
<svg width="31px" height="31px" viewBox="0 0 31 31" version="1.1" xmlns="http://www.w3.org/2000/svg" xmlns:xlink="http://www.w3.org/1999/xlink">
    <!-- Generator: Sketch 52.6 (67491) - http://www.bohemiancoding.com/sketch -->
    <title>Group 19</title>
    <desc>Created with Sketch.</desc>
    <g id="Page-1" stroke="none" stroke-width="1" fill="none" fill-rule="evenodd" stroke-linecap="round">
        <g id="DISPATCH_BrandGuide_icons-only" transform="translate(-148.000000, -116.000000)" stroke="#524D8E">
            <g id="Group-19" transform="translate(149.000000, 117.000000)">
                <path d="M8,6 L4.48089091,5.01220977 C4.48089091,5.01220977 4.16603392,4.96116894 4.17210833,4.62790232 L4.0536573,2.13690953 L4,1" id="Stroke-109"></path>
                <path d="M25,29 L24.7608856,25.324429 C24.7608856,25.324429 24.7756458,25.0032626 24.4538745,24.9390294 L22.0824108,24.2946574 L21,24" id="Stroke-111"></path>
                <path d="M25,24.730459 C22.3505761,27.3674702 18.6819891,29 14.6293407,29 C6.55004801,29 0,22.512477 0,14.5103071 C0,12.1694891 0.561089774,9.95745082 1.556249,8" id="Stroke-180"></path>
                <path d="M4,4.20844833 C6.65018022,1.60813023 10.3115739,0 14.3554265,0 C22.4431318,0 29,6.43252093 29,14.3690415 C29,16.7610984 28.4042851,19.0166066 27.35002,21" id="Stroke-182"></path>
            </g>
        </g>
    </g>
</svg>