<?xml version="1.0" encoding="UTF-8"?>
<svg width="45px" height="33px" viewBox="0 0 45 33" version="1.1" xmlns="http://www.w3.org/2000/svg" xmlns:xlink="http://www.w3.org/1999/xlink">
    <!-- Generator: Sketch 52.6 (67491) - http://www.bohemiancoding.com/sketch -->
    <title>Group 32</title>
    <desc>Created with Sketch.</desc>
    <g id="Page-1" stroke="none" stroke-width="1" fill="none" fill-rule="evenodd">
        <g id="DISPATCH_BrandGuide_icons-only" transform="translate(-419.000000, -188.000000)">
            <g id="Group-32" transform="translate(420.000000, 188.000000)">
                <g id="Group-4">
                    <g id="Group">
                        <path d="M36.2731,21.6306 C35.8541,23.3486 34.8181,25.1046 33.3161,26.4916 L33.3161,31.6796 L28.0301,31.6796 L28.0301,29.0546 C27.5511,29.1266 27.0601,29.1746 26.5511,29.1746 L13.6101,29.1746 C13.1051,29.1746 12.6171,29.1346 12.1431,29.0636 L12.1431,31.6796 L6.8571,31.6796 L6.8571,26.4536 C5.4241,25.0996 4.4261,23.3976 3.9501,21.7276 L2.2311,21.7276 C1.2721,21.7276 0.4941,20.9496 0.4941,19.9906 L0.4941,16.6396 C0.4941,15.6806 1.2721,14.9036 2.2311,14.9036 L3.7801,14.9036 C4.2481,12.5166 5.8311,9.9506 8.2641,8.3466 C8.2861,7.6966 8.1931,6.4276 7.3021,5.3076 C6.0401,3.7216 8.8271,4.3726 8.8271,4.3726 C8.8271,4.3726 12.0131,4.8206 12.9811,6.7646 C13.1881,6.7506 13.3981,6.7436 13.6101,6.7436 L26.5511,6.7436 C31.4861,6.7436 35.1221,10.3146 36.1571,13.8556 C36.1571,13.8556 36.7791,17.4476 38.9051,17.3686 L40.5111,16.1626 C40.9661,15.8206 41.6071,15.8826 41.9881,16.3056 C42.3971,16.7606 43.1001,16.7946 43.5501,16.3796" id="Stroke-308" stroke="#524D8E" stroke-linecap="round" stroke-linejoin="round"></path>
                        <path d="M19.6893,9.963 C18.1903,9.015 17.2263,7.312 17.3073,5.413 C17.4293,2.588 19.8173,0.397 22.6423,0.518 C25.4673,0.639 27.6593,3.028 27.5373,5.852 C27.4563,7.754 26.3473,9.369 24.7683,10.185" id="Fill-310" fill="#FFFFFE"></path>
                        <path d="M19.6893,9.963 C18.1903,9.015 17.2263,7.312 17.3073,5.413 C17.4293,2.588 19.8173,0.397 22.6423,0.518 C25.4673,0.639 27.6593,3.028 27.5373,5.852 C27.4563,7.754 26.3473,9.369 24.7683,10.185" id="Stroke-312" stroke="#524D8E" stroke-linecap="round" stroke-linejoin="round"></path>
                        <path d="M16.1599,10.3789 C16.1599,10.3789 22.4189,9.4109 28.2389,10.8979" id="Fill-314" fill="#FFFFFE"></path>
                        <path d="M16.1599,10.3789 C16.1599,10.3789 22.4189,9.4109 28.2389,10.8979" id="Stroke-316" stroke="#524D8E" stroke-linecap="round" stroke-linejoin="round"></path>
                        <path d="M9.3401,14.0072 C9.2991,12.7492 9.3101,13.0632 9.3101,13.0632" id="Fill-318" fill="#FFFFFE"></path>
                        <path d="M9.3401,14.0072 C9.2991,12.7492 9.3101,13.0632 9.3101,13.0632" id="Stroke-320" stroke="#524D8E" stroke-linecap="round" stroke-linejoin="round"></path>
                    </g>
                </g>
            </g>
        </g>
    </g>
</svg>