<?xml version="1.0" encoding="UTF-8"?>
<svg width="35px" height="34px" viewBox="0 0 35 34" version="1.1" xmlns="http://www.w3.org/2000/svg" xmlns:xlink="http://www.w3.org/1999/xlink">
    <!-- Generator: Sketch 52.6 (67491) - http://www.bohemiancoding.com/sketch -->
    <title>Group 38</title>
    <desc>Created with Sketch.</desc>
    <g id="Page-1" stroke="none" stroke-width="1" fill="none" fill-rule="evenodd" stroke-linecap="round">
        <g id="DISPATCH_BrandGuide_icons-only" transform="translate(-257.000000, -259.000000)" stroke="#524D8E">
            <g id="Group-38" transform="translate(258.000000, 260.000000)">
                <path d="M28.4720346,0 L28.4654148,0 C27.1036206,0 26,1.16970494 26,2.61304266 C26,3.46000125 26.3801675,4.21274197 26.9693326,4.68984527 L29.1198325,6.06502537 C29.1198325,6.06502537 31.8320724,7.83311408 31.9569035,9.75656205 C32.0817347,11.6810123 33,22.4709641 33,22.4709641 L30.3511213,22.4709641 L30.3511213,32" id="Stroke-368"></path>
                <path d="M2.4432012,32 L2.4432012,22.8161974 L0,22.8161974 C0,22.8161974 0.968098514,12.7174219 1.09983975,10.7942752 C1.23257904,8.87112837 4.09395887,7.10231437 4.09395887,7.10231437 L6.36350116,5.72835176 C7.23079766,5.06191475 7.66893709,3.86132598 7.18887999,2.61664213 C6.81162099,1.64053741 5.82755384,1.03924086 4.78560038,1.03924086 L4.77761607,1.03924086 L4.85047297,1.03924086 L4.84348669,1.03924086 C3.80153324,1.03924086 2.81646805,1.64053741 2.44020708,2.61664213 C1.95915194,3.86132598 2.39729137,5.06191475 3.26458787,5.72835176 L5.01514952,6.78763584 C5.01514952,6.78763584 8.74881605,8.51736557 8.88055729,10.4405124 L8.88055729,20.8930506 L6.9802897,20.8930506 L6.9802897,31.2052864 C6.9802897,31.6442329 7.33359575,32 7.77073714,32 L13.5274302,31.9959914 C13.9635735,31.9959914 14.3168796,31.6402242 14.3168796,31.2022799 L14.3168796,23.99073 L12.416612,23.99073 L12.416612,15.2619085 C12.5493512,13.3387617 16.2820197,11.6100341 16.2820197,11.6100341 L18.0325814,10.5497479 C18.8998779,9.88431305 19.3380173,8.68372428 18.8579602,7.43803827 C18.4807012,6.46293571 17.495636,5.860637 16.4536826,5.860637 L16.4466963,5.860637 L16.5195532,5.860637 L16.5125669,5.860637 L16.3159531,5.860637 L16.3079688,5.860637 L16.3808257,5.860637 L16.3738394,5.860637 C15.3308879,5.860637 14.3468208,6.46293571 13.9695617,7.43803827 C13.4895047,8.68372428 13.9276441,9.88431305 14.7949406,10.5497479 L16.5455022,11.6100341 C16.5455022,11.6100341 20.2781707,13.3387617 20.41091,15.2619085 L20.41091,23.99073 L18.5096444,23.99073 L18.5096444,31.2012778 C18.5096444,31.6402242 18.8639485,31.9949892 19.3010899,31.9949892 L25.6176831,31.9949892 C26.0548245,31.9949892 26.4091286,31.6402242 26.4091286,31.2012778 L26.4091286,22.4664433 L23.6126214,22.4664433 C23.6126214,22.4664433 24.5817179,11.6791832 24.7134592,9.75503429 C24.8452004,7.83188751 27.7075783,6.06407566 27.7075783,6.06407566 L29.9771206,4.6891109 C30.843419,4.02367605 31.2825565,2.82308728 30.8015014,1.57840343 C30.4252404,0.602298707 29.4401752,0 28.3982218,0 L28.3912355,0" id="Stroke-370"></path>
            </g>
        </g>
    </g>
</svg>